<?xml version="1.0" encoding="utf-8"?>
<!-- Generator: Adobe Illustrator 26.0.1, SVG Export Plug-In . SVG Version: 6.00 Build 0)  -->
<svg version="1.1" id="root360" xmlns="http://www.w3.org/2000/svg" xmlns:xlink="http://www.w3.org/1999/xlink" x="0px" y="0px"
	 viewBox="0 0 41.1 13.57" style="enable-background:new 0 0 41.1 13.57;" xml:space="preserve">
<style type="text/css">
	.st0{fill:#202121;}
	.st1{fill:#F07F39;}
	.st2{fill:#020203;}
</style>
<g>
	<path class="st0" d="M0.37,8.96V3.04h0.98v0.87c0.18-0.35,0.43-0.6,0.75-0.75c0.32-0.15,0.75-0.23,1.28-0.23h0.28v1.03H3.49
		c-0.73,0-1.25,0.17-1.58,0.52C1.59,4.82,1.43,5.39,1.43,6.17v2.79H0.37z"/>
	<path class="st0" d="M4.03,5.99c0-0.41,0.08-0.8,0.23-1.17c0.15-0.37,0.37-0.7,0.66-1C5.2,3.53,5.52,3.31,5.88,3.16
		c0.36-0.15,0.73-0.23,1.14-0.23c0.4,0,0.78,0.08,1.15,0.23c0.36,0.15,0.68,0.37,0.96,0.66c0.29,0.29,0.5,0.62,0.65,0.99
		c0.15,0.37,0.23,0.77,0.23,1.18c0,0.42-0.08,0.82-0.23,1.19c-0.15,0.38-0.37,0.71-0.65,1c-0.28,0.29-0.6,0.51-0.96,0.66
		C7.8,8.99,7.42,9.07,7.02,9.07c-0.4,0-0.78-0.08-1.14-0.23C5.52,8.69,5.2,8.47,4.92,8.18c-0.29-0.29-0.51-0.63-0.66-1
		C4.1,6.81,4.03,6.41,4.03,5.99z M5.13,5.98c0,0.58,0.18,1.06,0.55,1.46c0.37,0.4,0.81,0.6,1.34,0.6c0.52,0,0.97-0.2,1.34-0.6
		C8.72,7.04,8.9,6.55,8.9,5.98c0-0.57-0.18-1.06-0.55-1.45c-0.37-0.4-0.81-0.6-1.34-0.6c-0.52,0-0.97,0.2-1.34,0.6
		C5.31,4.92,5.13,5.41,5.13,5.98z"/>
	<path class="st0" d="M10.74,5.99c0-0.41,0.08-0.8,0.23-1.17c0.15-0.37,0.37-0.7,0.66-1c0.29-0.29,0.61-0.51,0.96-0.66
		c0.36-0.15,0.73-0.23,1.14-0.23c0.4,0,0.78,0.08,1.15,0.23c0.36,0.15,0.68,0.37,0.96,0.66c0.29,0.29,0.5,0.62,0.65,0.99
		c0.15,0.37,0.23,0.77,0.23,1.18c0,0.42-0.08,0.82-0.23,1.19c-0.15,0.38-0.37,0.71-0.65,1c-0.28,0.29-0.6,0.51-0.96,0.66
		c-0.36,0.15-0.74,0.23-1.15,0.23c-0.4,0-0.78-0.08-1.14-0.23c-0.36-0.15-0.68-0.37-0.96-0.66c-0.29-0.29-0.51-0.63-0.66-1
		C10.82,6.81,10.74,6.41,10.74,5.99z M11.85,5.98c0,0.58,0.18,1.06,0.55,1.46c0.37,0.4,0.81,0.6,1.34,0.6c0.52,0,0.97-0.2,1.34-0.6
		c0.37-0.4,0.55-0.89,0.55-1.46c0-0.57-0.18-1.06-0.55-1.45c-0.37-0.4-0.81-0.6-1.34-0.6c-0.52,0-0.97,0.2-1.34,0.6
		C12.03,4.92,11.85,5.41,11.85,5.98z"/>
	<path class="st0" d="M17.75,1.47h1.06v1.57h1.79v1h-1.79v2.53c0,0.47,0.12,0.82,0.35,1.04c0.23,0.22,0.6,0.33,1.11,0.33h0.34v1.01
		h-0.35c-0.84,0-1.46-0.18-1.88-0.55c-0.42-0.37-0.62-0.92-0.62-1.65V1.47z"/>
	<path class="st1" d="M21.77,0.32h3.61c0.42,0,0.73,0.08,0.94,0.23c0.21,0.15,0.32,0.38,0.32,0.68c0,0.16-0.04,0.32-0.11,0.47
		c-0.07,0.15-0.17,0.29-0.3,0.4l-1.75,1.65c0.87,0.01,1.54,0.24,2.02,0.68c0.47,0.44,0.71,1.07,0.71,1.88
		c0,0.78-0.25,1.42-0.76,1.91c-0.51,0.49-1.17,0.73-1.99,0.73h-2.89V7.81h2.53c0.62,0,1.09-0.14,1.41-0.4
		c0.33-0.27,0.49-0.66,0.49-1.16c0-0.47-0.15-0.83-0.46-1.11c-0.31-0.27-0.72-0.41-1.25-0.41h-1.53V3.95l2.7-2.53h-3.68V0.32z"/>
	<path class="st1" d="M30.27,3.71c-0.41,0.57-0.68,1.01-0.81,1.33c-0.13,0.32-0.2,0.63-0.2,0.94c0,0.58,0.18,1.05,0.54,1.43
		c0.36,0.38,0.81,0.57,1.34,0.57c0.52,0,0.97-0.2,1.33-0.6c0.37-0.4,0.55-0.89,0.55-1.46c0-0.57-0.18-1.03-0.54-1.38
		c-0.36-0.35-0.84-0.53-1.44-0.53c-0.07,0-0.2,0.01-0.4,0.02c-0.02,0-0.04,0.01-0.05,0.01l0.77-1.05c0.88,0.03,1.57,0.3,2.08,0.83
		c0.51,0.52,0.76,1.22,0.76,2.08c0,0.93-0.28,1.69-0.85,2.28c-0.57,0.59-1.3,0.89-2.19,0.89c-0.43,0-0.82-0.07-1.18-0.21
		c-0.36-0.14-0.68-0.35-0.97-0.63c-0.29-0.28-0.5-0.6-0.66-0.97c-0.15-0.36-0.23-0.74-0.23-1.12c0-0.47,0.09-0.94,0.28-1.41
		c0.19-0.47,0.57-1.09,1.13-1.88l1.8-2.53h1.37L30.27,3.71z"/>
	<path class="st1" d="M34.86,3.04c0-0.82,0.28-1.5,0.84-2.04c0.56-0.55,1.25-0.82,2.08-0.82c0.83,0,1.52,0.27,2.08,0.82
		c0.56,0.55,0.83,1.23,0.83,2.04v3.2c0,0.82-0.28,1.51-0.83,2.05c-0.55,0.54-1.25,0.82-2.08,0.82c-0.84,0-1.53-0.27-2.08-0.82
		c-0.55-0.55-0.83-1.23-0.83-2.05V3.04z M39.54,5.99V3.23c0-0.58-0.17-1.06-0.51-1.44c-0.34-0.38-0.76-0.57-1.26-0.57
		c-0.5,0-0.92,0.19-1.26,0.58c-0.34,0.38-0.51,0.86-0.51,1.44v2.76c0,0.58,0.17,1.07,0.51,1.45c0.34,0.38,0.76,0.58,1.26,0.58
		c0.51,0,0.93-0.19,1.26-0.57C39.37,7.06,39.54,6.58,39.54,5.99z"/>
</g>
<rect x="0.37" y="0.32" class="st1" width="14.43" height="1.09"/>
<g>
	<path class="st2" d="M22.71,12.26c0,0.42-0.25,0.67-0.55,0.67c-0.25,0-0.41-0.16-0.48-0.35h-0.01v0.74H21.6v-1.7h0.07v0.34h0.01
		c0.07-0.2,0.23-0.36,0.48-0.36C22.46,11.59,22.71,11.84,22.71,12.26z M22.63,12.26c0-0.38-0.21-0.6-0.49-0.6
		c-0.25,0-0.47,0.23-0.47,0.6s0.22,0.6,0.47,0.6C22.43,12.86,22.63,12.64,22.63,12.26z"/>
	<path class="st2" d="M23.36,11.66c-0.26,0-0.4,0.12-0.41,0.32h-0.08c0.01-0.18,0.12-0.38,0.48-0.38c0.23,0,0.42,0.1,0.42,0.4v0.65
		c0,0.1-0.01,0.24,0.19,0.2v0.06c-0.03,0.01-0.06,0.01-0.08,0.01c-0.13,0-0.18-0.06-0.18-0.22h0c-0.1,0.17-0.27,0.24-0.47,0.24
		c-0.25,0-0.41-0.13-0.41-0.34c0-0.24,0.15-0.35,0.48-0.4c0.19-0.03,0.41-0.03,0.41-0.25C23.71,11.75,23.56,11.66,23.36,11.66z
		 M23.71,12.5v-0.38c-0.04,0.08-0.19,0.11-0.38,0.13c-0.25,0.03-0.43,0.1-0.43,0.31c0,0.2,0.13,0.3,0.36,0.3
		C23.57,12.86,23.71,12.65,23.71,12.5z"/>
	<path class="st2" d="M24.68,11.6v0.06h-0.01c-0.25-0.04-0.48,0.15-0.48,0.43v0.8h-0.07v-1.29h0.07v0.28h0.01c0.05-0.17,0.21-0.29,0.39-0.29
		C24.62,11.59,24.65,11.6,24.68,11.6z"/>
	<path class="st2" d="M25.05,11.68v0.89c0,0.17,0,0.32,0.28,0.26v0.07c-0.05,0.01-0.08,0.01-0.14,0.01c-0.12,0-0.22-0.06-0.22-0.32v-0.91h-0.19
		v-0.06h0.19V11.2h0.07v0.42h0.28v0.06H25.05z"/>
	<path class="st2" d="M26.04,12.26c0-0.4,0.22-0.67,0.59-0.67c0.37,0,0.59,0.27,0.59,0.67s-0.22,0.67-0.59,0.67
		C26.26,12.93,26.04,12.66,26.04,12.26z M27.14,12.26c0-0.35-0.19-0.6-0.51-0.6c-0.33,0-0.51,0.25-0.51,0.6
		c0,0.35,0.19,0.6,0.51,0.6C26.96,12.86,27.14,12.61,27.14,12.26z"/>
	<path class="st2" d="M27.54,11.44v0.17h0.28v0.06h-0.28v1.22h-0.08v-1.22h-0.18v-0.06h0.18v-0.19c0-0.25,0.1-0.33,0.26-0.33
		c0.01,0,0.06,0,0.1,0.01v0.07C27.64,11.15,27.54,11.16,27.54,11.44z"/>
</g>
<path class="st2" d="M30.24,12.34c0,0.36-0.27,0.56-0.75,0.56c-0.61,0-0.85-0.27-0.86-0.62h0.5c0.02,0.17,0.13,0.25,0.34,0.25
	c0.15,0,0.23-0.05,0.23-0.15c0-0.15-0.16-0.17-0.43-0.23c-0.29-0.06-0.61-0.17-0.61-0.53c0-0.31,0.27-0.55,0.75-0.55
	c0.55,0,0.76,0.28,0.78,0.58h-0.5c-0.02-0.14-0.09-0.21-0.26-0.21c-0.15,0-0.23,0.05-0.23,0.14c0,0.12,0.11,0.12,0.37,0.18
	C29.91,11.83,30.24,11.95,30.24,12.34z"/>
<path class="st2" d="M30.88,10.45v1.26l0.5-0.58h0.64l-0.61,0.64l0.68,1.07h-0.64l-0.4-0.68l-0.17,0.18v0.51h-0.54v-2.39H30.88z"/>
<path class="st2" d="M32.91,11.44c-0.19,0-0.29,0.07-0.3,0.24h-0.5c0.02-0.33,0.25-0.61,0.81-0.61c0.48,0,0.75,0.19,0.75,0.73v0.79
	c0,0.09,0.03,0.13,0.1,0.13v0.13c-0.1,0.04-0.21,0.06-0.31,0.05c-0.24,0-0.31-0.11-0.31-0.23h-0.01C33,12.81,32.8,12.9,32.6,12.9
	c-0.36,0-0.56-0.2-0.56-0.49c0-0.34,0.25-0.5,0.65-0.58c0.22-0.04,0.44-0.08,0.44-0.22C33.12,11.5,33.05,11.44,32.91,11.44z
	 M33.12,12.22v-0.21c-0.09,0.03-0.18,0.06-0.27,0.08c-0.21,0.05-0.28,0.13-0.28,0.24c0,0.14,0.08,0.2,0.21,0.2
	C33.01,12.53,33.12,12.38,33.12,12.22z"/>
<path class="st2" d="M34.82,12.88c-0.15,0.44-0.31,0.56-0.67,0.56c-0.1,0-0.2-0.01-0.3-0.03V13h0.01c0.15,0.03,0.27,0.02,0.32-0.07
	c0.05-0.08,0.04-0.18-0.01-0.33l-0.56-1.47h0.54l0.39,1.12h0.01l0.32-1.12h0.54L34.82,12.88z"/>
<path class="st2" d="M36.02,10.45v2.39h-0.54v-2.39H36.02z"/>
<path class="st2" d="M36.21,10.69c0-0.15,0.12-0.24,0.27-0.24c0.15,0,0.27,0.08,0.27,0.24c0,0.15-0.12,0.24-0.27,0.24
	C36.33,10.92,36.21,10.84,36.21,10.69z M36.75,11.13v1.71h-0.54v-1.71H36.75z"/>
<path class="st2" d="M38.6,11.68v1.16h-0.54v-0.99c0-0.26-0.09-0.34-0.27-0.34c-0.2,0-0.32,0.1-0.32,0.34v0.99h-0.54v-1.71h0.54
	v0.25h0.01c0.09-0.16,0.26-0.3,0.56-0.3C38.37,11.08,38.6,11.29,38.6,11.68z"/>
<path class="st2" d="M39.31,10.45v1.26l0.5-0.58h0.64l-0.61,0.64l0.68,1.07h-0.64l-0.41-0.68l-0.17,0.18v0.51h-0.54v-2.39H39.31z"/>
</svg>
